<svg width="441" height="449" viewBox="0 0 441 449" fill="none" xmlns="http://www.w3.org/2000/svg">
<path d="M150.256 448.518C144.775 448.518 138.227 447.137 129.508 444.007C106.369 435.522 82.6419 410.037 57.5901 383.086C43.7951 368.286 29.5586 352.978 15.2486 340.433C-5.64629 317.767 -41.0719 302.149 -75.3572 287.011C-100.409 275.96 -124.063 265.501 -142.383 252.589L-142.419 252.561C-156.178 242.525 -162.615 232.827 -162.1 222.932C-161.107 203.621 -133.627 186.425 -101.77 166.522L-98.7168 164.605C-75.0997 149.776 -45.4496 129.929 -2.51942 100.3L1.12248 97.876C39.5278 72.2784 87.3506 40.4223 149.299 21.1114C273.381 -23.6281 381.976 11.0189 416.261 48.5696C452.018 92.4633 448.927 139.063 404.489 226.766C357.954 318.19 254.877 388.865 212.72 414.999C195.467 423.625 184.652 431.265 176.779 436.847C166.773 443.895 160.262 448.518 150.256 448.518ZM-139.145 249.883C-121.23 262.513 -97.7971 272.859 -73.0028 283.825C-38.3129 299.133 -2.40906 314.976 18.9272 338.15C33.2741 350.695 47.5841 366.087 61.4159 380.944C86.1366 407.5 109.496 432.59 131.495 440.681C153.236 448.433 158.349 444.825 173.542 434.112C181.561 428.446 192.561 420.665 209.924 411.982C251.567 386.131 353.907 315.991 400.038 225.385C443.851 138.951 447.051 93.1962 412.288 50.5429C378.996 14.1199 272.94 -19.484 151.212 24.4097C89.8889 43.5515 42.3972 75.182 4.24931 100.582L0.644226 103.007C-42.3227 132.664 -72.0096 152.539 -95.7003 167.395L-98.7535 169.312C-129.728 188.652 -156.435 205.369 -157.355 223.017C-157.796 231.84 -151.837 240.608 -139.145 249.883Z" fill="#CCCCCC"/>
<path d="M143.116 422.977C135.538 422.977 127.518 421.116 116.482 417.818L116.262 417.761C95.0726 409.614 78.2978 389.965 60.5666 369.188C48.4638 354.98 35.9195 340.32 20.8369 327.549C-0.425827 306.829 -27.1698 290.704 -52.994 275.114C-70.3574 264.655 -86.7643 254.76 -101.074 243.822L-101.332 243.596C-130.467 213.178 -109.572 199.759 -71.6817 175.373C-67.5616 172.723 -63.2208 169.932 -58.696 166.944C-49.7936 161.898 -40.3026 156.26 -30.223 150.283C14.5464 123.699 75.9067 87.3041 162.466 57.7597C268.265 26.7212 350.005 49.1614 384.143 85.1615C418.354 122.684 405.074 167.846 366.632 243.286C324.511 319.571 247.627 368.962 206.316 395.49L201.717 398.45C171 415.929 157.831 422.977 143.116 422.977ZM118.322 414.435C148.45 423.4 153.564 421.257 198.774 395.603L203.262 392.728C244.243 366.397 320.539 317.372 362.218 241.961C400.035 167.79 413.241 123.473 380.28 87.3323C347.246 52.4879 267.639 30.8653 164.305 61.1708C78.3714 90.4897 17.3054 126.744 -27.3169 153.187C-37.3965 159.163 -46.8875 164.802 -55.7163 169.82C-60.1307 172.723 -64.4715 175.514 -68.5917 178.193C-106.519 202.606 -123.882 213.77 -97.5796 241.341C-83.4903 252.082 -67.2305 261.864 -50.0511 272.238C-23.9693 287.941 2.95857 304.207 24.4788 325.181C39.7085 338.065 52.3631 352.865 64.5763 367.186C81.9029 387.484 98.3098 406.682 118.322 414.435Z" fill="#CCCCCC"/>
<path d="M136.947 401.664C127.272 401.664 118.296 399.014 107.113 394.504C88.425 385.877 73.4159 368.032 57.5241 349.172C48.1067 337.952 38.3214 326.366 27.1382 315.737C11.5039 299.048 -7.03662 284.784 -24.915 270.97C-39.5929 259.637 -53.4615 248.953 -64.3872 237.93L-64.5343 237.761C-86.6799 209.175 -63.7986 195.84 -22.2296 171.624L-21.7513 171.342L-14.0629 167.311C29.7133 144.448 89.6757 113.127 171.821 90.4335C268.79 66.7247 330.518 90.8845 353.952 118.737C379.003 148.451 372.86 188.341 332.763 256.423C303.554 303.869 255.878 346.522 191.097 383.199C166.045 396.223 150.779 401.664 136.947 401.664ZM-60.5246 235.759C-49.7828 246.556 -36.0614 257.156 -21.5306 268.348C-3.5051 282.246 15.1458 296.652 30.9273 313.482C42.2208 324.167 52.0429 335.866 61.5339 347.171C77.0947 365.692 91.8094 383.171 109.467 391.318C134.923 401.636 147.615 401.439 188.338 380.211C252.42 343.901 299.581 301.726 328.422 254.873C367.747 188.088 374 149.212 349.942 120.683C325.626 91.7866 261.617 72.2783 173.329 93.8446C91.8461 116.369 32.178 147.521 -11.3775 170.299L-19.3602 174.5C-61.2235 198.885 -80.3894 210.049 -60.5246 235.759Z" fill="#CCCCCC"/>
<path d="M133.491 382.269C122.676 382.269 112.523 379.422 101.192 373.84L101.119 373.812C84.0496 364.847 70.2914 347.989 55.7238 330.172C48.9919 321.912 42.0023 313.398 34.4243 305.279C24.3079 293.383 13.088 282.388 2.23588 271.788C-11.0809 258.764 -23.6988 246.444 -31.939 234.491C-46.3226 209.26 -25.2806 196.067 11.0647 177.263C48.5136 159.503 106.379 134.187 177.304 119.245C245.028 108.561 295.757 117.131 320.294 143.349C346.781 171.597 340.196 216.392 302.232 266.263C262.465 324.957 199.597 359.378 181.277 368.512C161.78 377.759 147.102 382.269 133.491 382.269ZM103.767 370.767C124.956 381.17 141.584 383.031 178.702 365.411C196.727 356.418 258.787 322.448 298.038 264.487C335.046 215.857 341.741 172.499 316.395 145.491C292.998 120.514 243.998 112.48 178.371 122.826C108.182 137.626 50.7208 162.745 13.603 180.364C-23.8091 199.703 -40.1057 211.205 -27.7085 232.941C-19.7258 244.471 -7.25507 256.649 5.95137 269.561C16.877 280.245 28.1706 291.268 38.3237 303.249C45.9386 311.369 52.928 319.967 59.6968 328.255C74.0436 345.705 87.5444 362.225 103.767 370.767Z" fill="#CCCCCC"/>
<path d="M131.207 364.564C119.73 364.564 109.172 361.548 98.2095 355.515L97.9152 355.317C55.9415 322.757 6.31617 248.191 -3.2116 233.588L-3.35872 233.25C-10.7896 212.332 5.98509 200.04 39.4978 184.676C71.0608 171.088 120.907 153.158 179.324 144.786C233.106 138.302 273.388 147.041 292.811 169.396C314.368 194.233 307.784 231.981 274.786 272.971C245.724 312.495 202.905 340.94 172.519 354.359C156.627 361.181 143.384 364.564 131.207 364.564ZM101.152 352.639C122.158 364.113 140.882 363.718 170.128 351.173C199.962 338.008 242.009 310.042 270.666 271.11C302.229 231.896 308.997 194.656 288.838 171.426C270.519 150.311 231.893 142.107 180.134 148.394C122.415 156.682 73.1209 174.443 41.889 187.862C9.81094 202.549 -5.30843 213.459 1.16603 232.15C28.5354 274.099 69.1112 327.718 101.152 352.639Z" fill="#CCCCCC"/>
<path d="M129.528 348.243C117.241 348.243 106.61 345.113 98.5536 339.052C66.3284 315.118 32.7789 264.627 22.8833 234.266C21.2647 227.246 23.5822 220.395 29.6888 213.855C48.5236 193.698 104.329 176.304 179.006 167.34C221.127 164.21 252.543 172.865 267.552 191.725C284.547 213.094 278.441 244.189 250.814 277.003C214.873 318.529 171.87 345.029 135.782 347.961C133.648 348.158 131.551 348.243 129.528 348.243ZM195.413 170.356C190.337 170.356 185.076 170.553 179.632 170.976C106.352 179.772 51.6873 196.602 33.625 215.998C28.2542 221.749 26.2309 227.641 27.592 233.533C37.3037 263.274 70.2646 312.947 101.938 336.459C110.289 342.717 121.84 345.452 135.304 344.352C169.993 341.533 211.71 315.625 246.841 275.03C273.033 243.907 279.287 213.489 263.505 193.642C251.403 178.447 227.528 170.356 195.413 170.356Z" fill="#CCCCCC"/>
<path d="M130.511 332.737C119.107 332.737 109.064 329.918 101.228 324.449C73.2705 305.025 47.4094 263.95 45.938 236.577V236.52C45.754 211.289 100.493 190.569 176.053 187.298C208.241 186.706 232.116 194.938 243.336 210.556C256.211 228.458 250.914 253.294 228.805 278.722C201.472 309.62 167.261 329.692 137.243 332.427C134.925 332.624 132.681 332.737 130.511 332.737ZM50.7203 236.464C52.1917 263.02 77.2803 302.882 104.466 321.742C112.743 327.521 123.852 329.946 136.654 328.79C165.311 326.168 198.272 306.688 224.832 276.664C245.911 252.42 251.134 228.937 239.142 212.276C228.805 197.926 206.512 190.315 176.237 190.907C104.576 194.036 50.5731 213.629 50.7203 236.464Z" fill="#CCCCCC"/>
<path d="M131.332 318.049C121.363 318.049 112.461 315.709 105.287 311.114C80.0883 295.073 62.1732 262.597 66.1093 240.157C70.3766 218.619 116.25 203.17 170.4 204.946C194.164 205.989 211.674 213.488 219.768 226.033C229.038 240.411 224.807 259.496 208.106 278.356C188.388 300.43 162.38 315.117 138.542 317.654C136.078 317.936 133.687 318.049 131.332 318.049ZM161.828 208.47C113.785 208.47 74.5335 222.086 70.8549 240.693C67.1762 261.639 84.6867 293.241 108.341 308.323C116.139 313.285 126.329 315.258 137.88 314.046C160.431 311.65 185.188 297.526 204.17 276.298C219.878 258.566 223.998 240.833 215.5 227.64C208.217 216.335 192.104 209.569 170.179 208.583C167.383 208.526 164.587 208.47 161.828 208.47Z" fill="#CCCCCC"/>
<path d="M133.583 304.011C125.563 304.011 118.28 302.235 112.173 298.767C91.0207 286.73 79.1386 262.513 85.6866 244.781C92.345 227.246 126.925 216.703 164.337 220.762C180.927 222.651 193.104 228.966 198.622 238.551C204.876 249.404 201.786 263.162 190.161 276.299C176.807 291.296 158.892 301.22 141.014 303.503C138.512 303.842 136.011 304.011 133.583 304.011ZM90.285 245.796C84.3255 261.893 95.6559 284.812 115.006 295.835C121.885 299.754 130.603 301.163 140.241 299.923C156.611 297.809 173.828 288.224 186.262 274.269C196.93 262.203 199.836 249.743 194.281 240.045C189.462 231.644 178.573 226.09 163.675 224.399C129.132 220.621 96.2077 230.234 90.285 245.796Z" fill="#CCCCCC"/>
<path d="M135.43 290.422C129.875 290.422 124.505 289.322 119.796 286.954C104.051 279.145 96.6938 262.569 103.352 250.024C110.047 237.535 133.922 230.797 156.619 235.026C167.104 236.971 174.755 241.736 178.176 248.389C181.929 255.718 180.016 264.627 172.953 272.802C163.204 284.022 148.747 290.422 135.43 290.422ZM122.371 283.91C135.945 290.647 156.84 284.784 168.98 270.801C175.16 263.64 176.926 255.944 173.725 249.742C170.893 244.216 164.418 240.241 155.479 238.578C134.989 234.772 113.579 240.523 107.767 251.405C101.918 262.428 108.466 277.003 122.371 283.91Z" fill="#CCCCCC"/>
<path d="M136.815 277.088C133.798 277.088 130.855 276.552 128.17 275.424C118.973 271.562 115.258 262.682 119.93 255.606C124.528 248.614 137.146 245.26 147.998 248.135C153.222 249.517 157.048 252.279 158.703 255.944C160.469 259.806 159.623 264.317 156.349 268.292C151.677 273.902 144.135 277.088 136.815 277.088ZM139.758 250.757C133.099 250.757 126.809 253.21 124.123 257.269C120.629 262.597 123.424 269.307 130.414 272.211C137.367 275.142 147.189 272.492 152.265 266.319C154.804 263.246 155.466 260.004 154.141 257.128C152.964 254.535 150.205 252.561 146.379 251.546C144.209 251.011 141.965 250.757 139.758 250.757Z" fill="#CCCCCC"/>
</svg>
