<svg width="15" height="16" viewBox="0 0 15 16" fill="none" xmlns="http://www.w3.org/2000/svg">
<path d="M14.9963 15.4997V15.4991H15V9.98052C15 7.28081 14.4247 5.20117 11.3004 5.20117C9.79839 5.20117 8.79045 6.03378 8.37897 6.82313H8.33552V5.45321H5.37317V15.4991H8.45779V10.5247C8.45779 9.21499 8.70356 7.94853 10.3092 7.94853C11.8912 7.94853 11.9148 9.44321 11.9148 10.6087V15.4997H14.9963Z" fill="#F7F7EE"/>
<path d="M0.223877 5.42578H3.35821V15.2765H0.223877V5.42578Z" fill="#F7F7EE"/>
<path d="M1.79104 0.5C0.802303 0.5 0 1.29856 0 2.28269C0 3.26683 0.802303 4.08209 1.79104 4.08209C2.77979 4.08209 3.58209 3.26683 3.58209 2.28269C3.58147 1.29856 2.77916 0.5 1.79104 0.5V0.5Z" fill="#F7F7EE"/>
</svg>
