<?xml version="1.0" encoding="utf-8"?>
<!-- Generator: Adobe Illustrator 27.5.0, SVG Export Plug-In . SVG Version: 6.00 Build 0)  -->
<svg version="1.1" xmlns="http://www.w3.org/2000/svg" xmlns:xlink="http://www.w3.org/1999/xlink" x="0px" y="0px"
	 viewBox="0 0 500 500" style="enable-background:new 0 0 500 500;" xml:space="preserve">
<g id="Background_Complete">
	<g>
		<rect y="382.398" style="fill:#EBEBEB;" width="500" height="0.25"/>
		<rect x="416.779" y="398.494" style="fill:#EBEBEB;" width="33.122" height="0.25"/>
		<rect x="322.527" y="401.208" style="fill:#EBEBEB;" width="8.693" height="0.25"/>
		<rect x="396.586" y="389.208" style="fill:#EBEBEB;" width="19.192" height="0.25"/>
		<rect x="52.459" y="390.888" style="fill:#EBEBEB;" width="43.193" height="0.25"/>
		<rect x="104.556" y="390.888" style="fill:#EBEBEB;" width="6.333" height="0.25"/>
		<rect x="131.471" y="395.111" style="fill:#EBEBEB;" width="93.676" height="0.25"/>
		<path style="fill:#EBEBEB;" d="M237.014,337.8H43.915c-3.147,0-5.708-2.561-5.708-5.708V60.66c0-3.147,2.561-5.708,5.708-5.708
			h193.099c3.146,0,5.707,2.561,5.707,5.708v271.432C242.721,335.239,240.16,337.8,237.014,337.8z M43.915,55.203
			c-3.01,0-5.458,2.448-5.458,5.458v271.432c0,3.01,2.448,5.458,5.458,5.458h193.099c3.009,0,5.457-2.448,5.457-5.458V60.66
			c0-3.009-2.448-5.458-5.457-5.458H43.915z"/>
		<path style="fill:#EBEBEB;" d="M453.31,337.8H260.212c-3.147,0-5.707-2.561-5.707-5.708V60.66c0-3.147,2.561-5.708,5.707-5.708
			H453.31c3.148,0,5.708,2.561,5.708,5.708v271.432C459.019,335.239,456.458,337.8,453.31,337.8z M260.212,55.203
			c-3.009,0-5.457,2.448-5.457,5.458v271.432c0,3.01,2.448,5.458,5.457,5.458H453.31c3.01,0,5.458-2.448,5.458-5.458V60.66
			c0-3.009-2.448-5.458-5.458-5.458H260.212z"/>
	</g>
	<g>
		<g>
			<g>
				<polygon style="fill:#F5F5F5;" points="134.387,136.467 78.877,136.467 79.727,128.963 135.237,128.963 				"/>
				<polygon style="fill:#F5F5F5;" points="130.412,171.548 74.903,171.548 75.753,164.045 131.262,164.045 				"/>
				<polygon style="fill:#F5F5F5;" points="126.438,206.63 70.928,206.63 71.779,199.126 127.288,199.126 				"/>
				<polygon style="fill:#F5F5F5;" points="122.464,241.712 66.954,241.712 67.804,234.208 123.314,234.208 				"/>
				<polygon style="fill:#F5F5F5;" points="118.489,276.793 62.98,276.793 63.83,269.29 119.34,269.29 				"/>
				<polygon style="fill:#F5F5F5;" points="114.515,311.875 59.006,311.875 59.856,304.371 115.365,304.371 				"/>
				<polygon style="fill:#F5F5F5;" points="110.541,346.957 55.031,346.957 55.881,339.453 111.391,339.453 				"/>
			</g>
			<g>
				<polygon style="fill:#EBEBEB;" points="54.807,382.651 46.115,382.651 76.547,114.03 85.239,114.03 				"/>
				<polygon style="fill:#EBEBEB;" points="111.369,382.651 102.677,382.651 133.109,114.03 141.801,114.03 				"/>
			</g>
		</g>
		<g>
			<rect x="339.644" y="98.633" style="fill:#F5F5F5;" width="104.696" height="284.018"/>
			<g>
				<rect x="345.375" y="104.869" style="fill:#EBEBEB;" width="93.234" height="46.329"/>
				<rect x="357.033" y="122.367" style="fill:#F0F0F0;" width="28.832" height="28.832"/>
				<rect x="396.22" y="130.677" style="fill:#F0F0F0;" width="20.521" height="20.521"/>
			</g>
			<g>
				<rect x="345.375" y="156.059" style="fill:#EBEBEB;" width="93.234" height="46.329"/>
				<rect x="357.033" y="173.556" style="fill:#F0F0F0;" width="13.88" height="28.832"/>
				<rect x="385.865" y="190.572" style="fill:#F0F0F0;" width="30.876" height="11.816"/>
				<rect x="380" y="172.94" style="fill:#F0F0F0;" width="29.978" height="17.632"/>
			</g>
			<g>
				<rect x="345.375" y="207.249" style="fill:#EBEBEB;" width="93.234" height="46.329"/>
				<rect x="380" y="224.746" style="fill:#F0F0F0;" width="5.865" height="28.832"/>
				<rect x="396.22" y="214.558" style="fill:#F0F0F0;" width="36" height="39.02"/>
			</g>
			<g>
				<rect x="345.375" y="258.438" style="fill:#EBEBEB;" width="93.234" height="46.329"/>
				<rect x="357.033" y="275.935" style="fill:#F0F0F0;" width="28.832" height="28.832"/>
				<rect x="396.22" y="284.246" style="fill:#F0F0F0;" width="20.521" height="20.521"/>
			</g>
			<g>
				<rect x="345.375" y="309.628" style="fill:#EBEBEB;" width="93.234" height="46.329"/>
				<rect x="357.033" y="327.125" style="fill:#F0F0F0;" width="28.832" height="28.832"/>
				<rect x="396.22" y="335.436" style="fill:#F0F0F0;" width="20.521" height="20.521"/>
			</g>
			<rect x="354.286" y="84.349" style="fill:#F0F0F0;" width="31.579" height="14.284"/>
			<rect x="397.967" y="91.491" style="fill:#F0F0F0;" width="16.253" height="7.142"/>
		</g>
		<g>
			
				<rect x="97.364" y="301.337" transform="matrix(-1 -1.224647e-16 1.224647e-16 -1 285.4003 683.9887)" style="fill:#EBEBEB;" width="90.673" height="81.314"/>
			
				<rect x="156.48" y="301.337" transform="matrix(-1 -1.224647e-16 1.224647e-16 -1 344.5169 683.9887)" style="fill:#E0E0E0;" width="31.556" height="81.314"/>
		</g>
		<g>
			
				<rect x="79.319" y="236.824" transform="matrix(-1 -1.224647e-16 1.224647e-16 -1 249.3111 539.8376)" style="fill:#F5F5F5;" width="90.673" height="66.19"/>
			
				<rect x="138.436" y="236.824" transform="matrix(-1 -1.224647e-16 1.224647e-16 -1 308.4277 539.8376)" style="fill:#EBEBEB;" width="31.556" height="66.19"/>
		</g>
		<g>
			
				<rect x="100.601" y="204.425" transform="matrix(-1 -1.224647e-16 1.224647e-16 -1 288.6375 441.2472)" style="fill:#FAFAFA;" width="87.436" height="32.396"/>
			
				<rect x="157.607" y="204.425" transform="matrix(-1 -1.224647e-16 1.224647e-16 -1 345.6437 441.2472)" style="fill:#F0F0F0;" width="30.43" height="32.396"/>
		</g>
		<g>
			<rect x="65.677" y="84.349" style="fill:#F0F0F0;" width="123.864" height="7.142"/>
			<rect x="74.903" y="74.253" style="fill:#F5F5F5;" width="17.987" height="10.096"/>
			<rect x="97.04" y="65.286" style="fill:#F0F0F0;" width="19.063" height="19.063"/>
			<rect x="122.97" y="74.817" style="fill:#EBEBEB;" width="9.532" height="9.532"/>
			<path style="fill:#F5F5F5;" d="M148.64,79.751c0,2.725-2.209,4.934-4.934,4.934c-2.725,0-4.934-2.209-4.934-4.934
				c0-2.725,2.209-4.934,4.934-4.934C146.431,74.817,148.64,77.026,148.64,79.751z"/>
			<polygon style="fill:#EBEBEB;" points="154.881,84.349 160.872,65.286 170.765,65.286 176.231,84.685 			"/>
		</g>
	</g>
</g>
<g id="Background_Simple">
	<g>
		<path style="fill:#407BFF;" d="M104.556,101.625c27.919-59.449,127.059-51.062,165.317-9.255
			c38.258,41.806,50.696,68.599,85.208,52.983c34.512-15.616,78.518-11.44,81.043,38.164s-37.913,108.263-102.09,125.615
			c-64.177,17.352-64.161,78.759-149.1,66.368c-46.31-6.756-47.365-56.86-40.825-98.301S72.177,170.569,104.556,101.625z"/>
		<path style="opacity:0.9;fill:#FFFFFF;" d="M104.556,101.625c27.919-59.449,127.059-51.062,165.317-9.255
			c38.258,41.806,50.696,68.599,85.208,52.983c34.512-15.616,78.518-11.44,81.043,38.164s-37.913,108.263-102.09,125.615
			c-64.177,17.352-64.161,78.759-149.1,66.368c-46.31-6.756-47.365-56.86-40.825-98.301S72.177,170.569,104.556,101.625z"/>
	</g>
</g>
<g id="Shadow_1_">
	<ellipse id="_x3C_Path_x3E__359_" style="fill:#F5F5F5;" cx="250" cy="416.238" rx="193.889" ry="11.323"/>
</g>
<g id="Screen">
	<g>
		<g>
			<path style="fill:#407BFF;" d="M327.622,118.373v296.47c0,2.44-1.956,4.335-4.396,4.335H185.25c-1.102,0-2.059-0.412-2.759-1.112
				c-0.731-0.71-1.174-1.719-1.174-2.862V118.012c0-1.936,1.431-3.634,3.367-3.634h39.186c1.102,0,2.111,0.721,2.523,1.761
				l1.627,3.995c0.412,1.03,1.411,1.75,2.522,1.75h47.948c1.112,0,2.111-0.69,2.522-1.719l1.627-4.015
				c0.412-1.04,1.411-1.771,2.523-1.771h38.62C325.913,114.378,327.622,116.231,327.622,118.373z"/>
			<g>
				<g>
					
						<rect x="199.51" y="123.602" transform="matrix(-1 -1.224647e-16 1.224647e-16 -1 401.0578 249.9214)" style="opacity:0.6;fill:#FFFFFF;enable-background:new    ;" width="2.039" height="2.718"/>
					
						<rect x="196.187" y="122.695" transform="matrix(-1 -1.224647e-16 1.224647e-16 -1 394.4124 249.0146)" style="opacity:0.6;fill:#FFFFFF;enable-background:new    ;" width="2.039" height="3.625"/>
					
						<rect x="192.864" y="121.788" transform="matrix(-1 -1.224647e-16 1.224647e-16 -1 387.7671 248.1079)" style="opacity:0.6;fill:#FFFFFF;enable-background:new    ;" width="2.039" height="4.531"/>
					
						<rect x="189.541" y="120.881" transform="matrix(-1 -1.224647e-16 1.224647e-16 -1 381.1217 247.2011)" style="opacity:0.6;fill:#FFFFFF;enable-background:new    ;" width="2.039" height="5.438"/>
				</g>
				<g>
					<rect x="307.735" y="122.61" style="opacity:0.6;fill:#FFFFFF;enable-background:new    ;" width="1.208" height="2.718"/>
					
						<rect x="309.774" y="121.618" transform="matrix(-1 -1.224647e-16 1.224647e-16 -1 629.1754 247.9375)" style="opacity:0.6;fill:#FFFFFF;enable-background:new    ;" width="9.628" height="4.702"/>
				</g>
			</g>
			<g style="opacity:0.1;enable-background:new    ;">
				<path style="fill:#FFFFFF;" d="M247.138,121.879L205.02,279.644v0.009l-0.469,1.773v0.009l-0.76,2.842v0.009l-0.478,1.772
					l-21.992,82.38v-99.702l41.209-154.36h1.341c1.107,0,2.11,0.722,2.523,1.763l1.622,3.995c0.413,1.032,1.416,1.744,2.523,1.744
					H247.138z"/>
				<polygon style="fill:#FFFFFF;" points="327.624,202.449 327.624,302.152 301.355,400.551 300.718,402.942 296.385,419.177 
					269.769,419.177 274.101,402.952 274.795,400.345 278.275,387.309 278.969,384.701 280.366,379.487 281.06,376.88 
					282.448,371.665 283.142,369.058 305.041,287.043 305.041,287.034 306.054,283.245 306.054,283.236 				"/>
				<path style="fill:#FFFFFF;" d="M261.562,121.879l-41.856,156.78l-0.253,0.938l-2.288,8.591l-0.253,0.938L182.492,418.07
					c-0.732-0.713-1.172-1.726-1.172-2.87v-15.165l29.608-110.91l0.253-0.938l2.288-8.591l0.253-0.938l41.856-156.78H261.562z"/>
			</g>
		</g>
		<g>
			<rect x="181.317" y="133.703" style="opacity:0.3;fill:#FFFFFF;enable-background:new    ;" width="146.305" height="272.347"/>
		</g>
		<g>
			<path style="fill:#407BFF;" d="M299.47,253.38L299.47,253.38c2.814,0,5.096-2.282,5.096-5.096v-80.452
				c0-2.815-2.282-5.096-5.096-5.096l0,0c-2.814,0-5.096,2.281-5.096,5.096v80.452C294.374,251.098,296.655,253.38,299.47,253.38z"
				/>
			<path style="opacity:0.3;enable-background:new    ;" d="M299.47,251.38c-1.707,0-3.096-1.389-3.096-3.096v-80.452
				c0-1.707,1.389-3.096,3.096-3.096c1.707,0,3.096,1.389,3.096,3.096v80.452C302.565,249.991,301.177,251.38,299.47,251.38z"/>
			
				<ellipse transform="matrix(0.1602 -0.9871 0.9871 0.1602 78.0096 443.2085)" style="fill:#407BFF;" cx="299.47" cy="175.76" rx="7.389" ry="7.389"/>
			<path style="fill:#407BFF;" d="M269.47,253.38L269.47,253.38c2.814,0,5.096-2.282,5.096-5.096v-80.452
				c0-2.815-2.282-5.096-5.096-5.096l0,0c-2.814,0-5.096,2.281-5.096,5.096v80.452C264.374,251.098,266.655,253.38,269.47,253.38z"
				/>
			<path style="opacity:0.3;enable-background:new    ;" d="M269.47,251.38c-1.707,0-3.096-1.389-3.096-3.096v-80.452
				c0-1.707,1.389-3.096,3.096-3.096c1.707,0,3.096,1.389,3.096,3.096v80.452C272.565,249.991,271.177,251.38,269.47,251.38z"/>
			
				<ellipse transform="matrix(0.1602 -0.9871 0.9871 0.1602 -6.4102 463.9849)" style="fill:#407BFF;" cx="269.47" cy="235.76" rx="7.389" ry="7.389"/>
			<path style="fill:#407BFF;" d="M239.469,253.38L239.469,253.38c2.814,0,5.096-2.282,5.096-5.096v-80.452
				c0-2.815-2.282-5.096-5.096-5.096l0,0c-2.814,0-5.096,2.281-5.096,5.096v80.452C234.374,251.098,236.655,253.38,239.469,253.38z"
				/>
			<path style="opacity:0.3;enable-background:new    ;" d="M239.47,251.38c-1.707,0-3.096-1.389-3.096-3.096v-80.452
				c0-1.707,1.389-3.096,3.096-3.096c1.707,0,3.096,1.389,3.096,3.096v80.452C242.565,249.991,241.177,251.38,239.47,251.38z"/>
			
				<ellipse transform="matrix(0.1602 -0.9871 0.9871 0.1602 7.8788 400.7796)" style="fill:#407BFF;" cx="239.469" cy="195.76" rx="7.389" ry="7.389"/>
			<path style="fill:#407BFF;" d="M209.469,253.38L209.469,253.38c2.814,0,5.096-2.282,5.096-5.096v-80.452
				c0-2.815-2.282-5.096-5.096-5.096l0,0c-2.814,0-5.096,2.281-5.096,5.096v80.452C204.374,251.098,206.655,253.38,209.469,253.38z"
				/>
			<path style="opacity:0.3;enable-background:new    ;" d="M209.47,251.38c-1.707,0-3.096-1.389-3.096-3.096v-80.452
				c0-1.707,1.389-3.096,3.096-3.096c1.707,0,3.096,1.389,3.096,3.096v80.452C212.565,249.991,211.177,251.38,209.47,251.38z"/>
			
				<ellipse transform="matrix(0.1602 -0.9871 0.9871 0.1602 -46.9283 396.3615)" style="fill:#407BFF;" cx="209.469" cy="225.76" rx="7.389" ry="7.389"/>
			
				<ellipse transform="matrix(0.1602 -0.9871 0.9871 0.1602 78.0096 443.2085)" style="opacity:0.6;fill:#FFFFFF;" cx="299.47" cy="175.76" rx="7.389" ry="7.389"/>
			<path style="opacity:0.6;fill:#FFFFFF;" d="M299.47,181.148c-2.971,0-5.389-2.417-5.389-5.389c0-2.971,2.417-5.389,5.389-5.389
				s5.389,2.418,5.389,5.389C304.858,178.731,302.441,181.148,299.47,181.148z"/>
			
				<ellipse transform="matrix(0.1602 -0.9871 0.9871 0.1602 -6.4102 463.9849)" style="opacity:0.6;fill:#FFFFFF;" cx="269.47" cy="235.76" rx="7.389" ry="7.389"/>
			<path style="opacity:0.6;fill:#FFFFFF;" d="M269.47,241.148c-2.971,0-5.389-2.417-5.389-5.389c0-2.972,2.417-5.389,5.389-5.389
				s5.389,2.417,5.389,5.389C274.858,238.731,272.441,241.148,269.47,241.148z"/>
			
				<ellipse transform="matrix(0.1602 -0.9871 0.9871 0.1602 7.8788 400.7796)" style="opacity:0.6;fill:#FFFFFF;" cx="239.469" cy="195.76" rx="7.389" ry="7.389"/>
			<path style="opacity:0.6;fill:#FFFFFF;" d="M239.47,201.148c-2.971,0-5.389-2.417-5.389-5.389c0-2.971,2.417-5.389,5.389-5.389
				c2.971,0,5.389,2.418,5.389,5.389C244.858,198.731,242.441,201.148,239.47,201.148z"/>
			
				<ellipse transform="matrix(0.1602 -0.9871 0.9871 0.1602 -46.9283 396.3615)" style="opacity:0.6;fill:#FFFFFF;" cx="209.469" cy="225.76" rx="7.389" ry="7.389"/>
			<path style="opacity:0.6;fill:#FFFFFF;" d="M209.47,231.148c-2.971,0-5.389-2.417-5.389-5.389c0-2.971,2.417-5.389,5.389-5.389
				c2.971,0,5.389,2.418,5.389,5.389C214.858,228.731,212.441,231.148,209.47,231.148z"/>
		</g>
		<g>
			<path style="fill:#407BFF;" d="M317.798,395.361H191.141c-1.519,0-2.751-1.232-2.751-2.751V274.315
				c0-1.519,1.232-2.751,2.751-2.751h126.658c1.519,0,2.751,1.232,2.751,2.751V392.61
				C320.549,394.129,319.318,395.361,317.798,395.361z"/>
			<path style="opacity:0.3;enable-background:new    ;" d="M317.798,395.361H191.141c-1.519,0-2.751-1.232-2.751-2.751V274.315
				c0-1.519,1.232-2.751,2.751-2.751h126.658c1.519,0,2.751,1.232,2.751,2.751V392.61
				C320.549,394.129,319.318,395.361,317.798,395.361z"/>
		</g>
		<g>
			<path style="opacity:0.6;fill:#FFFFFF;" d="M242.545,351.807v10.642l5.48,0.516c0.74,3.567,2.153,6.884,4.087,9.83l-3.52,4.251
				l7.525,7.526l4.252-3.52c2.946,1.933,6.262,3.347,9.829,4.087l0.516,5.48h10.642l0.516-5.48c3.568-0.74,6.884-2.153,9.83-4.087
				l4.252,3.52l7.525-7.526l-3.52-4.251c1.933-2.946,3.346-6.262,4.087-9.83l5.479-0.516v-10.642l-5.479-0.516
				c-0.74-3.567-2.154-6.884-4.087-9.83l3.52-4.252l-7.525-7.525l-4.251,3.52c-2.946-1.933-6.262-3.347-9.83-4.087l-0.516-5.48
				h-10.642l-0.516,5.48c-3.567,0.74-6.884,2.153-9.83,4.087l-4.251-3.52l-7.525,7.525l3.52,4.252
				c-1.933,2.946-3.348,6.262-4.087,9.83L242.545,351.807z M276.035,342.721c7.957,0,14.407,6.45,14.407,14.407
				c0,7.957-6.45,14.407-14.407,14.407c-7.956,0-14.406-6.45-14.406-14.407C261.629,349.172,268.079,342.721,276.035,342.721z"/>
			<path style="opacity:0.4;fill:#FFFFFF;" d="M199.413,321.247v8.34l4.294,0.404c0.58,2.795,1.688,5.394,3.203,7.703l-2.758,3.331
				l5.896,5.897l3.332-2.758c2.308,1.515,4.907,2.623,7.702,3.203l0.404,4.294h8.339l0.404-4.294
				c2.796-0.58,5.395-1.688,7.703-3.203l3.331,2.758l5.897-5.897l-2.758-3.331c1.515-2.309,2.623-4.908,3.203-7.703l4.294-0.404
				v-8.34l-4.294-0.404c-0.58-2.795-1.688-5.394-3.203-7.703l2.758-3.331l-5.897-5.897l-3.331,2.758
				c-2.308-1.514-4.907-2.622-7.703-3.202l-0.404-4.294h-8.339l-0.404,4.294c-2.795,0.58-5.395,1.688-7.703,3.202l-3.331-2.758
				l-5.896,5.897l2.758,3.331c-1.515,2.309-2.623,4.907-3.203,7.703L199.413,321.247z M225.657,314.128
				c6.235,0,11.289,5.054,11.289,11.289c0,6.235-5.054,11.29-11.289,11.29c-6.235,0-11.289-5.054-11.289-11.29
				C214.368,319.182,219.422,314.128,225.657,314.128z"/>
			<path style="opacity:0.2;fill:#FFFFFF;" d="M245.923,295.501v7.005l3.607,0.34c0.486,2.348,1.417,4.531,2.689,6.47l-2.317,2.798
				l4.953,4.953l2.798-2.317c1.939,1.272,4.122,2.203,6.47,2.689l0.34,3.607h7.004l0.34-3.607c2.348-0.487,4.531-1.418,6.47-2.69
				l2.798,2.317l4.953-4.953l-2.317-2.798c1.272-1.939,2.202-4.122,2.689-6.47l3.607-0.34l-0.001-7.005l-3.606-0.339
				c-0.487-2.348-1.418-4.531-2.69-6.47l2.317-2.798l-4.953-4.953l-2.798,2.317c-1.939-1.272-4.122-2.203-6.47-2.69l-0.34-3.606
				h-7.004l-0.34,3.606c-2.348,0.487-4.531,1.418-6.47,2.69l-2.798-2.317l-4.953,4.953l2.317,2.798
				c-1.272,1.939-2.203,4.122-2.69,6.47L245.923,295.501z M267.965,289.522c5.237,0,9.482,4.245,9.482,9.482
				c0,5.237-4.245,9.482-9.482,9.482c-5.236,0-9.482-4.246-9.482-9.482C258.483,293.767,262.729,289.522,267.965,289.522z"/>
			<polygon style="opacity:0.6;fill:#FFFFFF;" points="233.689,323.265 227.809,317.385 219.776,319.537 217.624,327.569 
				223.504,333.449 231.536,331.297 			"/>
			<polygon style="opacity:0.8;fill:#FFFFFF;" points="277.334,346.908 267.833,350.894 266.535,361.114 274.737,367.349 
				284.238,363.363 285.536,353.142 			"/>
			<polygon style="opacity:0.4;fill:#FFFFFF;" points="273.871,302.414 273.871,295.594 267.966,292.184 262.06,295.594 
				262.06,302.414 267.966,305.823 			"/>
		</g>
	</g>
</g>
<g id="Character_2">
	<g>
		<path style="fill:#B97964;" d="M411.192,237.611l10.638,8.641c0,0,2.602,0.054,3.419,0.913c0.817,0.859,3.958,7.244,3.512,8.115
			c-0.447,0.871-5.696,2.592-6.803,1.562c-1.107-1.03-3.029-6.938-2.992-7.568l-13.595-9.119L411.192,237.611z"/>
		<path style="fill:#263238;" d="M417.09,241.41l-2.38,5.19c0,0-14.63-6.85-17.8-10.84c-0.81-1.03-1.93-2.67-3.14-4.54
			c-1.99-3.09-4.24-6.81-5.8-9.42c-1.16-1.95-1.94-3.28-1.94-3.28l8.28-13.06c1.81,1.39,7.35,23.71,8.34,24.91
			C403.64,231.57,417.09,241.41,417.09,241.41z"/>
		<path style="opacity:0.2;enable-background:new    ;" d="M393.77,231.22c-1.99-3.09-4.24-6.81-5.8-9.42l3.85-9.5
			C391.82,212.3,393.91,223.2,393.77,231.22z"/>
		<path style="fill:#B97964;" d="M326.327,188.049l-11.218-7.975c0,0-1.334-2.234-2.485-2.52c-1.151-0.285-8.253,0.144-8.789,0.963
			c-0.536,0.819,0.566,6.232,2.008,6.685c1.442,0.453,7.527-0.8,8.057-1.145l11.394,7.871L326.327,188.049z"/>
		<polygon style="fill:#B97964;" points="414.85,411.792 408.573,412.901 405.998,404.341 403.649,396.486 410.887,393.958 
			412.989,403.399 		"/>
		<polygon style="opacity:0.2;enable-background:new    ;" points="413.023,403.593 406.029,404.514 403.664,396.572 
			410.895,394.001 		"/>
		<polygon style="fill:#B97964;" points="372.941,411.951 366.567,411.951 365.52,403.398 364.573,395.415 372.14,394.265 
			372.568,403.645 		"/>
		<polygon style="opacity:0.2;enable-background:new    ;" points="372.568,404.206 365.52,403.896 364.573,395.664 372.14,394.389 
					"/>
		<g>
			<g>
				<path style="fill:#407BFF;" d="M413.614,396.727l-10.319,1.819c-10.414-25.945-17.821-47.602-23.052-65.574
					c-2.818-9.698-5.05-18.321-6.737-25.973l0.434,28.244v63.707h-10.406c-25.492-121-7.426-149.129-7.426-149.129l30.497-5.098
					c1.159,4.552,2.036,11.988,2.554,17.124l1.376,10.112l11.922,61.573L413.614,396.727z"/>
			</g>
		</g>
		<g>
			<polygon style="fill:#407BFF;" points="401.676,397.271 414.477,393.028 414.304,398.472 403.717,401.849 			"/>
			<polygon style="opacity:0.6;fill:#FFFFFF;enable-background:new    ;" points="401.676,397.271 414.477,393.028 414.304,398.472 
				403.717,401.849 			"/>
		</g>
		<g>
			<polygon style="fill:#407BFF;" points="362.166,397.863 375.509,395.91 374.392,401.242 363.38,402.726 			"/>
			<polygon style="opacity:0.6;fill:#FFFFFF;enable-background:new    ;" points="362.166,397.863 375.509,395.91 374.392,401.242 
				363.38,402.726 			"/>
		</g>
		<path style="opacity:0.2;enable-background:new    ;" d="M381.647,337.722c-0.481-1.611-0.993-3.195-1.446-4.75
			c-2.554-8.802-4.261-16.719-6.261-23.824v-0.019l-1.042-13.081c0,0,6.523-14.372,4.083-24.484
			c0.226,0.575,4.543,11.592,2.847,22.599C379.827,294.163,379.008,314.029,381.647,337.722z"/>
		<g>
			<path style="fill:#B97964;" d="M382.524,192.331c-0.083,0.056-0.176,0.11-0.266,0.146c-1.236,0.657-2.635,1.258-4.155,1.403
				c-4.255,0.416-7.004-0.517-8.601-2.626c-0.009-0.001-0.009-0.001-0.009-0.001c-2.214-3.139-2.213-8.19-1.069-14.133
				c0.517-2.727,1.22-5.066,2.219-6.827c0.012-0.018,0.021-0.087,0.033-0.104c0.047-0.07,0.089-0.171,0.136-0.241
				c1.469-2.451,3.566-3.889,6.659-4.209c1.069-0.108,2.264-0.091,3.593,0.063C392.761,167.2,392.345,186.823,382.524,192.331z"/>
			<path style="opacity:0.2;enable-background:new    ;" d="M382.258,192.476c-1.236,0.657-2.614,1.095-4.134,1.239
				c-4.255,0.416-6.986-0.653-8.58-2.79c1.969,0.713,4.677,1.236,7.49,0.357C378.807,190.735,380.615,191.369,382.258,192.476z"/>
			<path style="fill:#B97964;" d="M383.134,202.041c1.05,3.268-3.14,5.052-3.14,5.052c-7.368-2.326-9.051-5.958-9.051-5.958
				c5.598-3.656,3.036-12.192,3.036-12.192l1.259,0.473l8.587,0.821c0,0-1.897,4.715-2.107,5.768
				c0.001,0.009-0.008,0.02-0.007,0.029C380.65,201.537,383.134,202.041,383.134,202.041z"/>
			<path style="fill:#263238;" d="M370.648,170.214c0,0-1.71,8.109,5.595,12.637c0,0,2.226,8.944,7.118,9.703
				c6.669,1.035,13.805-7.718,12.749-17.716C394.741,161.873,375.825,158.371,370.648,170.214z"/>
			<path style="fill:#B97964;" d="M372.618,179.987c0.169-1.278,1.476-3.29,3.424-2.74c2.017,0.569,2.496,5.785-2.704,6.26
				C372.592,183.575,372.265,182.653,372.618,179.987z"/>
		</g>
		<path style="fill:#263238;" d="M365.893,410.743h7.114c0.303,0.001,0.566,0.213,0.632,0.509l1.461,6.597
			c0.125,0.591-0.253,1.171-0.843,1.296c-0.079,0.017-0.16,0.025-0.24,0.024c-2.912-0.047-3.147-0.226-6.803-0.226
			c-2.252,0-9.047,0.236-12.157,0.236c-3.11,0-3.515-3.072-2.243-3.355c5.711-1.244,10.009-2.969,11.837-4.609
			C364.988,410.903,365.433,410.734,365.893,410.743z"/>
		<path style="fill:#407BFF;" d="M363.443,412.044c-0.503,0.04-1.006-0.093-1.423-0.377c-0.278-0.229-0.417-0.586-0.367-0.942
			c-0.005-0.209,0.113-0.401,0.302-0.49c0.82-0.424,3.214,1.046,3.477,1.216c0.062,0.032,0.097,0.101,0.085,0.17
			c-0.009,0.072-0.061,0.132-0.132,0.151C364.749,411.933,364.098,412.025,363.443,412.044z M362.34,410.508
			c-0.078-0.007-0.157,0.01-0.226,0.047c-0.047,0-0.104,0.066-0.113,0.207c-0.03,0.236,0.058,0.473,0.236,0.632
			c0.831,0.377,1.774,0.424,2.639,0.132C364.103,411.027,363.242,410.682,362.34,410.508z"/>
		<path style="fill:#407BFF;" d="M365.337,411.78h-0.085c-0.763-0.415-2.243-2.045-2.092-2.827c0.054-0.269,0.291-0.463,0.565-0.462
			c0.269-0.035,0.54,0.047,0.745,0.226c0.858,0.697,1.037,2.827,1.046,2.931c0.001,0.064-0.031,0.125-0.085,0.16
			C365.397,411.809,365.365,411.799,365.337,411.78z M363.848,408.773h-0.085c-0.226,0-0.245,0.132-0.254,0.179
			c-0.094,0.481,0.848,1.715,1.611,2.29c-0.049-0.844-0.355-1.653-0.876-2.318C364.134,408.828,363.994,408.774,363.848,408.773z"/>
		<path style="fill:#263238;" d="M408.329,410.743h7.114c0.303,0.001,0.565,0.213,0.631,0.509l1.461,6.597
			c0.125,0.591-0.253,1.171-0.843,1.296c-0.079,0.017-0.16,0.025-0.241,0.024c-2.912-0.047-3.146-0.226-6.803-0.226
			c-2.252,0-9.047,0.236-12.157,0.236c-3.11,0-3.515-3.072-2.243-3.355c5.711-1.244,10.009-2.969,11.837-4.609
			C407.424,410.903,407.869,410.734,408.329,410.743z"/>
		<path style="fill:#407BFF;" d="M405.879,412.044c-0.504,0.04-1.006-0.093-1.423-0.377c-0.278-0.229-0.417-0.586-0.368-0.942
			c-0.005-0.209,0.113-0.401,0.302-0.49c0.82-0.424,3.214,1.046,3.478,1.216c0.062,0.032,0.097,0.101,0.085,0.17
			c-0.009,0.072-0.061,0.132-0.132,0.151C407.185,411.933,406.534,412.025,405.879,412.044z M404.776,410.508
			c-0.078-0.007-0.157,0.01-0.226,0.047c-0.047,0-0.104,0.066-0.113,0.207c-0.03,0.236,0.058,0.473,0.236,0.632
			c0.831,0.377,1.774,0.424,2.639,0.132C406.539,411.027,405.678,410.682,404.776,410.508z"/>
		<path style="fill:#407BFF;" d="M407.773,411.78h-0.085c-0.763-0.415-2.243-2.045-2.092-2.827c0.054-0.269,0.291-0.463,0.565-0.462
			c0.269-0.035,0.54,0.047,0.745,0.226c0.858,0.697,1.037,2.827,1.046,2.931c0.001,0.064-0.031,0.125-0.085,0.16
			C407.833,411.809,407.8,411.799,407.773,411.78z M406.284,408.773h-0.085c-0.226,0-0.245,0.132-0.255,0.179
			c-0.094,0.481,0.848,1.715,1.612,2.29c-0.05-0.844-0.355-1.653-0.876-2.318C406.57,408.828,406.43,408.774,406.284,408.773z"/>
		<path style="fill:#263238;" d="M356.107,249.935c0,0-5.819-35.448,4.181-51.342c0,0,19.971-1.241,34.022,6.868
			c0,0-5.806,15.783-6.67,44.473H356.107z"/>
		<path style="opacity:0.2;enable-background:new    ;" d="M354.286,222.806c-0.43-4.81,0.961-9.44,1.201-13.52
			c3.67-3.06,6.574-7.495,6.574-7.495S363.879,216.152,354.286,222.806z"/>
		<path style="fill:#263238;" d="M362.762,198.525c0,0-19.791-2.32-22.768-3.568c-1.864-0.782-16.411-10.288-16.411-10.288
			l-3.411,5.079c0,0,14.884,12.02,17.4,13.401c5.902,3.241,19.164,7.813,19.164,7.813S364.748,205.392,362.762,198.525z"/>
		<path style="fill:#263238;" d="M391.82,168.445c0,0,6.788-5.774,13.529-2.143c6.741,3.631-1.109,17.621,0.86,21.908
			c1.97,4.287,6.242,3.97,0.851,6.792c-5.391,2.822-0.17,5.158-0.17,5.158s-4.824,1.636-5.221-2.336s-2.135-7.258-3.696-7.938
			c-1.561-0.68,2.646-8.22,1.186-11.949c-1.46-3.729-5.693-3.412-5.693-3.412L391.82,168.445z"/>
		<path style="fill:#263238;" d="M381.063,165.801c0,0-8.563-5.365-12.595-1.551c-6.222,5.887,2.647,14.347,12.04,18.357
			L381.063,165.801z"/>
	</g>
</g>
<g id="Character_1">
	<g id="_x3C_Group_x3E__95_">
		<g>
			<path style="fill:#407BFF;" d="M199.531,274.19l-70.142-78.099c2.486-5.486,1.998-12.124-1.698-17.176
				c-4.101-5.606-10.769-7.902-16.968-6.753c-0.928,0.172-1.323,1.281-0.693,1.983l9.2,10.244c0.359,0.4,0.478,0.962,0.311,1.473
				l-1.993,6.106c-0.167,0.511-0.594,0.895-1.12,1.006l-6.285,1.328c-0.526,0.111-1.072-0.067-1.431-0.467l-9.201-10.244
				c-0.631-0.703-1.776-0.426-2.046,0.479c-1.649,5.519-0.481,11.735,3.649,16.334c4.695,5.228,11.875,6.868,18.142,4.78
				l70.142,78.099c-2.487,5.486-1.998,12.124,1.698,17.176c4.101,5.606,10.77,7.902,16.968,6.753
				c0.928-0.172,1.323-1.281,0.693-1.983l-9.2-10.244c-0.359-0.4-0.478-0.962-0.311-1.473l1.993-6.107
				c0.167-0.511,0.594-0.895,1.12-1.006l6.285-1.327c0.526-0.111,1.072,0.067,1.431,0.467l9.201,10.244
				c0.631,0.703,1.776,0.427,2.046-0.479c1.649-5.519,0.481-11.735-3.649-16.334C212.977,273.743,205.797,272.102,199.531,274.19z"
				/>
			<path style="opacity:0.7;fill:#FFFFFF;enable-background:new    ;" d="M199.531,274.19l-70.142-78.099
				c2.486-5.486,1.998-12.124-1.698-17.176c-4.101-5.606-10.769-7.902-16.968-6.753c-0.928,0.172-1.323,1.281-0.693,1.983
				l9.2,10.244c0.359,0.4,0.478,0.962,0.311,1.473l-1.993,6.106c-0.167,0.511-0.594,0.895-1.12,1.006l-6.285,1.328
				c-0.526,0.111-1.072-0.067-1.431-0.467l-9.201-10.244c-0.631-0.703-1.776-0.426-2.046,0.479
				c-1.649,5.519-0.481,11.735,3.649,16.334c4.695,5.228,11.875,6.868,18.142,4.78l70.142,78.099
				c-2.487,5.486-1.998,12.124,1.698,17.176c4.101,5.606,10.77,7.902,16.968,6.753c0.928-0.172,1.323-1.281,0.693-1.983l-9.2-10.244
				c-0.359-0.4-0.478-0.962-0.311-1.473l1.993-6.107c0.167-0.511,0.594-0.895,1.12-1.006l6.285-1.327
				c0.526-0.111,1.072,0.067,1.431,0.467l9.201,10.244c0.631,0.703,1.776,0.427,2.046-0.479c1.649-5.519,0.481-11.735-3.649-16.334
				C212.977,273.743,205.797,272.102,199.531,274.19z"/>
		</g>
		<path style="fill:#E4897B;" d="M120.286,182.156c0,0-20.821,2.732-23.524,6.446c-2.703,3.715-2.853,7.161,9.46,10.694l3.604-2.624
			c0,0-5.105-1.952-4.505-3.153c0.601-1.201,14.965-0.751,14.965-0.751V182.156z"/>
		<path style="fill:#407BFF;" d="M128.11,181.89l-2.9,10.12l-4.87,0.74l-10.2,1.55l-0.3-4.08l-0.59-8.06
			C109.25,182.16,119.27,180.14,128.11,181.89z"/>
		<path style="opacity:0.2;enable-background:new    ;" d="M122.97,186.17l-2.63,6.58l-10.2,1.55l-0.3-4.08
			C115.02,186.19,122.97,186.17,122.97,186.17z"/>
		<polygon style="fill:#E4897B;" points="120.965,411.731 129.075,412.581 129.485,407.881 130.595,395.091 122.485,394.231 
			121.255,408.361 		"/>
		<polygon style="fill:#E4897B;" points="80.485,410.701 88.345,410.701 88.415,408.921 88.425,408.701 88.825,397.301 
			88.835,397.071 88.995,392.701 81.125,392.701 		"/>
		<polygon style="opacity:0.2;enable-background:new    ;" points="122.485,394.231 121.255,408.361 129.485,407.881 
			130.595,395.091 		"/>
		<polygon style="opacity:0.2;enable-background:new    ;" points="80.535,409.701 80.545,409.701 88.415,408.701 88.425,408.701 
			88.835,397.701 88.825,397.701 80.945,398.331 80.545,409.356 		"/>
		<path style="fill:#263238;" d="M89.435,410.228h-9.55c-0.322,0.002-0.6,0.226-0.67,0.54l-1.55,7
			c-0.133,0.627,0.268,1.242,0.895,1.375c0.084,0.018,0.17,0.026,0.255,0.025c3.09-0.05,5.34-0.24,9.22-0.24
			c2.39,0,9.6,0.25,12.9,0.25c3.3,0,3.73-3.26,2.38-3.56c-6.06-1.32-10.62-3.15-12.56-4.89
			C90.395,410.398,89.923,410.219,89.435,410.228z"/>
		<path style="fill:#263238;" d="M129.935,409.978h-9.55c-0.322,0.002-0.6,0.226-0.67,0.54l-1.55,7
			c-0.133,0.627,0.268,1.242,0.895,1.375c0.084,0.018,0.17,0.026,0.255,0.025c3.09-0.05,5.34-0.24,9.22-0.24
			c2.39,0,9.6,0.25,12.9,0.25c3.3,0,3.73-3.26,2.38-3.56c-6.06-1.32-10.62-3.15-12.56-4.89
			C130.895,410.148,130.423,409.969,129.935,409.978z"/>
		<path style="fill:#263238;" d="M131.34,406.701h-11.53c0,0-3.308-99.684-15.778-133.204
			C105.56,335.83,90.87,407.701,90.87,407.701H79.48c0,0,5.205-56.272,5.205-80.879c0-43.608-11.96-64.907-0.315-93.121h41.72
			C136.306,295.25,140.24,338.701,131.34,406.701z"/>
		<polygon style="fill:#407BFF;" points="132.633,403.451 132.07,406.701 118.445,406.701 118.445,403.701 		"/>
		<polygon style="fill:#407BFF;" points="92.178,404.701 90.87,407.701 79.445,407.701 78.695,404.701 		"/>
		<g>
			<path style="fill:#E4897B;" d="M162.026,185.549c-0.306,0.249-0.616,0.484-0.935,0.692c-1.904,1.276-4.082,1.874-6.21,1.847
				c-0.559-0.004-1.118-0.052-1.667-0.14c-2.899-0.475-5.541-2.12-7.067-4.768c-0.632-1.073-1.081-2.332-1.273-3.742
				c-0.796-5.542,2.022-9.169,6.295-15.679c0.899-1.416,2.11-2.607,3.551-3.457c5.046-3.022,11.587-1.37,14.601,3.672
				C173.595,171.013,167.548,180.929,162.026,185.549z"/>
			<path style="opacity:0.2;enable-background:new    ;" d="M154.881,188.088c-0.559-0.004-1.118-0.052-1.667-0.14
				c-2.899-0.475-5.541-2.12-7.067-4.768c1.334-0.881,2.687-1.293,2.687-1.293S152.993,184.078,154.881,188.088z"/>
			<path style="fill:#E4897B;" d="M136.306,186.875c1.005,5.076,9.31,9.629,9.31,9.629s5.66,2.199,5.761-0.004
				c-2.432-2.512-2.816-4.8-2.144-6.866c0.393-1.202,1.149-2.323,2.065-3.374c0.475-0.557,1.004-1.086,1.543-1.595l-4.205-13.808
				C146.481,176.318,141.766,185.805,136.306,186.875z"/>
			<path style="fill:#263238;" d="M172.788,164.924c-0.85-4.747-3.249-4.962-3.249-4.962c-0.231-3.782-9.151-7.602-14.983-6.377
				c-5.832,1.225-9.816,6.389-11.413,11.129c-2.326,6.904-0.923,15.475-0.923,15.475c0.002,0.001,0.003,0.002,0.004,0.003
				c4.721,3.595,9.645,4.26,11.141,1.594c1.496-2.666,5.188-3.581,5.188-3.581c2.247,1.954,5.807,0.017,5.807,0.017
				s4.034-1.394,4.726-5.334C169.777,168.95,173.504,168.925,172.788,164.924z"/>
			<path style="fill:#E4897B;" d="M158.367,175.964c-0.634,1.636-0.626,3.188,0.023,4.316c0.872,1.483,3.036,0.309,4.244-1.705
				c1.059-1.793,1.934-4.775,0.343-5.475C161.385,172.4,159.169,173.955,158.367,175.964z"/>
			<path style="fill:#263238;" d="M159.393,153.544c8.771-2.618,15.829,11.779,15.482,19.411c-0.282,6.199-6.793,5.447-6.793,5.447
				s3.593-0.239,3.247-4.595c0,0-1.557,5.331-5.047,1.834c-3.489-3.497,0.644-11.837,0.644-11.837L159.393,153.544z"/>
		</g>
		<path style="opacity:0.2;enable-background:new    ;" d="M103.07,314.25c-1.54-15.55-4.41-28.78-4.41-28.78
			c-11.81-14.84-5.36-28.54-5.36-28.54c1.58,9.53,10.73,16.57,10.73,16.57C104.36,286.91,103.94,300.76,103.07,314.25z"/>
		<g>
			<path style="fill:#407BFF;" d="M136.286,184.593c0,0,2.537-1.879,7.219,0.89c4.682,2.769,6.224,8.067,6.224,8.067
				L136.286,184.593z"/>
			<path style="fill:#407BFF;" d="M130.595,253.381c0,0,0-24.331,25.438-53.78c0,0-11.423-15.946-27.923-17.715
				c0,0-30.461,10.457-47.054,54.992L130.595,253.381z"/>
			<path style="opacity:0.6;fill:#FFFFFF;enable-background:new    ;" d="M156.03,199.6c-2.69,3.12-5.1,6.18-7.25,9.16
				c-4.25,5.89-7.51,11.47-10,16.55c-8.18,16.66-8.18,28.07-8.18,28.07l-49.54-16.5c16.59-44.54,47.05-54.99,47.05-54.99
				C144.61,183.66,156.03,199.6,156.03,199.6z"/>
			<g>
				<g>
					<path style="fill:#407BFF;" d="M130.9,249.89c-0.11,0.82-0.18,1.5-0.22,2.04l-48.95-16.81c0.24-0.63,0.49-1.25,0.74-1.86
						L130.9,249.89z"/>
				</g>
				<g>
					<path style="fill:#407BFF;" d="M131.76,244.94c-0.15,0.71-0.29,1.37-0.4,1.99c-16.96-6.55-36.27-13.86-47.2-17.64
						c0.27-0.62,0.55-1.22,0.83-1.82C97.18,231.67,118.28,239.73,131.76,244.94z"/>
				</g>
				<g>
					<path style="fill:#407BFF;" d="M133.05,239.92c-0.2,0.67-0.38,1.32-0.55,1.94c-13.46-5.82-33.75-14.37-45.61-18.29
						c0.31-0.61,0.62-1.2,0.93-1.79C99.9,225.8,119.74,234.15,133.05,239.92z"/>
				</g>
				<g>
					<path style="fill:#407BFF;" d="M134.72,234.79c-0.23,0.66-0.46,1.3-0.67,1.92c-13.14-6.34-31.99-15.01-44.12-18.71
						c0.34-0.6,0.69-1.19,1.04-1.76C103.31,220.06,121.75,228.53,134.72,234.79z"/>
				</g>
				<g>
					<path style="fill:#407BFF;" d="M136.79,229.62c-0.28,0.63-0.54,1.25-0.78,1.87c-12.57-6.72-30.02-15.36-42.72-18.91
						c0.39-0.59,0.79-1.18,1.19-1.75C107.35,214.54,124.41,222.98,136.79,229.62z"/>
				</g>
				<g>
					<path style="fill:#407BFF;" d="M139.23,224.39c-0.31,0.62-0.61,1.24-0.9,1.85c-11.82-6.97-27.9-15.46-41.29-18.94
						c0.44-0.59,0.88-1.16,1.33-1.73C111.86,209.23,127.59,217.52,139.23,224.39z"/>
				</g>
				<g>
					<path style="fill:#407BFF;" d="M142.04,219.17c-0.35,0.61-0.68,1.21-1.01,1.8c-10.97-7.08-25.78-15.32-39.79-18.84
						c0.5-0.58,1-1.14,1.52-1.69C116.78,204.13,131.25,212.18,142.04,219.17z"/>
				</g>
				<g>
					<path style="fill:#407BFF;" d="M145.16,214.06c-0.37,0.56-0.72,1.12-1.07,1.68c-10.08-7.09-23.7-15.02-38.13-18.63
						c0.57-0.56,1.13-1.1,1.69-1.62C121.88,199.29,135.22,207.08,145.16,214.06z"/>
				</g>
				<g>
					<path style="fill:#407BFF;" d="M148.64,208.95c-0.39,0.55-0.77,1.09-1.15,1.62c-9.15-6.99-21.63-14.57-36.16-18.33
						c0.66-0.54,1.3-1.06,1.93-1.55C127.45,194.64,139.63,202.07,148.64,208.95z"/>
				</g>
				<g>
					<path style="fill:#407BFF;" d="M152.45,203.92c-0.42,0.53-0.83,1.05-1.23,1.58c-8.2-6.78-19.52-13.97-33.71-17.9
						c0.77-0.52,1.51-0.99,2.22-1.43C133.42,190.26,144.39,197.28,152.45,203.92z"/>
				</g>
				<g>
					<path style="fill:#407BFF;" d="M156.03,199.6c-0.27,0.31-0.53,0.62-0.79,0.93c-7.18-6.41-17.19-13.09-30.42-17.2
						c1.23-0.61,2.16-1,2.71-1.22c10.59,3.59,19.07,8.78,25.65,14.07c0,0,0.01,0,0.01,0.01C155.03,198.2,156.03,199.6,156.03,199.6z
						"/>
				</g>
			</g>
			<path style="opacity:0.2;enable-background:new    ;" d="M148.78,208.76c-4.25,5.89-7.51,11.47-10,16.55
				c-0.32-12.82,9.24-19.81,9.24-19.81L148.78,208.76z"/>
		</g>
		<path style="fill:#E4897B;" d="M156.033,207.123v30.825l11.935,21.472l4.912,5.469c0,0-5.736,3.544-7.319,1.267
			c-1.582-2.277-3.165-6.736-3.165-6.736s-11.857-15.925-13.714-19.733c-1.857-3.808-2.534-26.807-2.534-26.807L156.033,207.123z"/>
		<path style="fill:#407BFF;" d="M156.033,199.601c1.879,5.201,1.864,22.923,1.864,22.923l-13.324,1.166l-1.068-7
			c0,0,0.097-6.345,4.583-12.613C151.138,199.814,156.033,199.601,156.033,199.601z"/>
	</g>
</g>
</svg>
