<svg width="56" height="69" viewBox="0 0 56 69" fill="none" xmlns="http://www.w3.org/2000/svg">
<path d="M46.3673 38.8363C44.4968 29.4225 53.4321 23.9014 53.4321 23.9014C53.4321 23.9014 49.9508 18.8648 44.1 17.5691C38.2521 16.2705 35.3252 17.8929 32.4041 19.1098C29.4802 20.3296 28.0211 20.3296 28.0211 20.3296C23.8016 20.3296 20.717 15.862 12.6777 17.8959C7.13915 19.2936 1.30867 25.6873 0.255239 33.3182C-0.798195 40.952 1.47507 50.6927 5.85804 58.2419C10.241 65.7969 14.7058 68.6362 17.8748 68.7179C21.0439 68.7967 24.2072 66.4476 28.0211 65.8757C31.8381 65.3095 34.1871 67.2589 37.931 68.3123C41.6603 69.3629 42.9677 68.3882 47.2631 64.7347C51.5702 61.0812 55.4689 50.6023 55.4689 50.6023C55.4689 50.6023 48.2378 48.256 46.3673 38.8363Z" fill="black"/>
<path d="M38.0856 11.4788C42.2293 7.25638 40.8258 0.719727 40.8258 0.719727C40.8258 0.719727 35.0071 1.7411 31.1084 5.79723C27.2127 9.85634 27.8576 16.2675 27.8576 16.2675C27.8576 16.2675 33.9418 15.6985 38.0856 11.4788Z" fill="black"/>
</svg>
