<svg width="211" height="71" viewBox="0 0 211 71" fill="none" xmlns="http://www.w3.org/2000/svg">
<path d="M90.2977 37.5525C90.2977 47.5967 82.4804 54.9981 72.8868 54.9981C63.2932 54.9981 55.476 47.5967 55.476 37.5525C55.476 27.4375 63.2932 20.1069 72.8868 20.1069C82.4804 20.1069 90.2977 27.4375 90.2977 37.5525ZM82.676 37.5525C82.676 31.2759 78.1453 26.9813 72.8868 26.9813C67.6283 26.9813 63.0976 31.2759 63.0976 37.5525C63.0976 43.7662 67.6283 48.1237 72.8868 48.1237C78.1453 48.1237 82.676 43.7584 82.676 37.5525Z" fill="#EA4335"/>
<path d="M127.858 37.5525C127.858 47.5967 120.041 54.9981 110.447 54.9981C100.854 54.9981 93.0363 47.5967 93.0363 37.5525C93.0363 27.4454 100.854 20.1069 110.447 20.1069C120.041 20.1069 127.858 27.4375 127.858 37.5525ZM120.236 37.5525C120.236 31.2759 115.706 26.9813 110.447 26.9813C105.189 26.9813 100.658 31.2759 100.658 37.5525C100.658 43.7662 105.189 48.1237 110.447 48.1237C115.706 48.1237 120.236 43.7584 120.236 37.5525Z" fill="#FBBC05"/>
<path d="M163.854 21.1609V52.4811C163.854 65.3647 156.294 70.6267 147.358 70.6267C138.946 70.6267 133.883 64.9715 131.974 60.3466L138.61 57.5701C139.791 60.4095 142.687 63.7602 147.35 63.7602C153.071 63.7602 156.615 60.2129 156.615 53.5351V51.026H156.349C154.643 53.1418 151.357 54.9902 147.21 54.9902C138.531 54.9902 130.581 47.3922 130.581 37.6154C130.581 27.7679 138.531 20.1069 147.21 20.1069C151.349 20.1069 154.636 21.9553 156.349 24.0082H156.615V21.1688H163.854V21.1609ZM157.155 37.6154C157.155 31.4725 153.078 26.9813 147.89 26.9813C142.632 26.9813 138.226 31.4725 138.226 37.6154C138.226 43.6954 142.632 48.1237 147.89 48.1237C153.078 48.1237 157.155 43.6954 157.155 37.6154Z" fill="#4285F4"/>
<path d="M175.787 2.80249V53.9279H168.353V2.80249H175.787Z" fill="#34A853"/>
<path d="M204.756 43.2941L210.671 47.2583C208.762 50.0977 204.161 54.99 196.211 54.99C186.351 54.99 178.987 47.3291 178.987 37.5444C178.987 27.1699 186.413 20.0989 195.358 20.0989C204.364 20.0989 208.77 27.3036 210.21 31.197L211 33.1791L187.799 42.8379C189.575 46.338 192.337 48.1235 196.211 48.1235C200.092 48.1235 202.784 46.2043 204.756 43.2941ZM186.546 37.0175L202.056 30.5442C201.203 28.3655 198.636 26.8474 195.616 26.8474C191.742 26.8474 186.351 30.2846 186.546 37.0175Z" fill="#EA4335"/>
<path d="M27.3368 33.0139V25.6125H52.1502C52.3928 26.9024 52.518 28.4283 52.518 30.0801C52.518 35.6331 51.0077 42.4996 46.1405 47.3919C41.4063 52.3472 35.3575 54.99 27.3446 54.99C12.4925 54.99 0.00366211 42.83 0.00366211 27.9014C0.00366211 12.9727 12.4925 0.812744 27.3446 0.812744C35.561 0.812744 41.4141 4.05331 45.8119 8.27706L40.616 13.4997C37.4625 10.5266 33.19 8.21413 27.3368 8.21413C16.4912 8.21413 8.00875 16.9998 8.00875 27.9014C8.00875 38.8029 16.4912 47.5886 27.3368 47.5886C34.3715 47.5886 38.378 44.7492 40.9446 42.1693C43.0261 40.0771 44.3955 37.0882 44.9354 33.006L27.3368 33.0139Z" fill="#4285F4"/>
</svg>
