<svg width="288" height="63" viewBox="0 0 288 63" fill="none" xmlns="http://www.w3.org/2000/svg">
<g clip-path="url(#clip0_9_2498)">
<path d="M287.647 28.7688V23.6641H281.379V15.7282L281.168 15.7939L275.281 17.6157L275.165 17.6514V23.6644H265.873V20.3146C265.873 18.7548 266.218 17.5612 266.897 16.7652C267.572 15.9787 268.537 15.5789 269.769 15.5789C270.654 15.5789 271.57 15.7897 272.493 16.2056L272.724 16.31V10.9341L272.615 10.8937C271.755 10.5809 270.584 10.4233 269.134 10.4233C267.306 10.4233 265.645 10.8257 264.196 11.6231C262.746 12.4217 261.606 13.5617 260.807 15.0111C260.011 16.4588 259.607 18.1309 259.607 19.9813V23.6641H255.243V28.7688H259.607V50.274H265.873V28.7688H275.165V42.435C275.165 48.0634 277.79 50.9156 282.967 50.9156C283.817 50.9156 284.713 50.8148 285.627 50.6174C286.558 50.4147 287.191 50.2122 287.565 49.996L287.647 49.9466V44.7947L287.392 44.9652C287.052 45.1943 286.629 45.3816 286.132 45.5208C285.634 45.6626 285.217 45.7337 284.895 45.7337C283.682 45.7337 282.785 45.4032 282.228 44.7509C281.665 44.0928 281.379 42.9418 281.379 41.3318V28.7688H287.647ZM241.252 45.7345C238.977 45.7345 237.185 44.9719 235.921 43.4697C234.65 41.9599 234.006 39.8074 234.006 37.0725C234.006 34.2509 234.65 32.0425 235.922 30.506C237.186 28.9797 238.962 28.205 241.2 28.205C243.373 28.205 245.102 28.9449 246.341 30.4052C247.586 31.8732 248.218 34.0639 248.218 36.9184C248.218 39.8079 247.624 42.0276 246.452 43.5124C245.289 44.9859 243.539 45.7345 241.252 45.7345ZM241.53 23.0231C237.191 23.0231 233.746 24.3088 231.288 26.8446C228.833 29.3807 227.588 32.8902 227.588 37.2767C227.588 41.443 228.803 44.7942 231.2 47.2356C233.598 49.6779 236.86 50.915 240.896 50.915C245.101 50.915 248.479 49.6113 250.934 47.0405C253.39 44.4724 254.634 40.996 254.634 36.712C254.634 32.4805 253.467 29.1044 251.163 26.6792C248.859 24.2529 245.617 23.0231 241.53 23.0231ZM217.487 23.0231C214.535 23.0231 212.094 23.7865 210.229 25.2918C208.353 26.8061 207.401 28.7921 207.401 31.1954C207.401 32.4446 207.607 33.5543 208.011 34.4955C208.418 35.4398 209.047 36.2712 209.883 36.9689C210.713 37.6611 211.994 38.386 213.692 39.1237C215.119 39.7175 216.183 40.2199 216.859 40.6158C217.52 41.0038 217.989 41.3938 218.253 41.7737C218.511 42.1455 218.641 42.6543 218.641 43.2821C218.641 45.0699 217.318 45.9398 214.594 45.9398C213.583 45.9398 212.431 45.7264 211.169 45.3058C209.915 44.8915 208.732 44.2848 207.661 43.507L207.401 43.3183V49.419L207.496 49.4639C208.383 49.8778 209.501 50.2268 210.818 50.5014C212.133 50.7763 213.327 50.9162 214.365 50.9162C217.568 50.9162 220.147 50.149 222.028 48.6348C223.922 47.1101 224.882 45.0772 224.882 42.5908C224.882 40.7972 224.365 39.259 223.347 38.0185C222.335 36.7881 220.58 35.6585 218.132 34.66C216.181 33.8682 214.931 33.2109 214.416 32.7063C213.919 32.2188 213.666 31.5295 213.666 30.6565C213.666 29.8827 213.978 29.2627 214.617 28.7607C215.262 28.2561 216.159 27.9995 217.284 27.9995C218.328 27.9995 219.396 28.1663 220.458 28.4931C221.519 28.8199 222.451 29.2577 223.23 29.7931L223.486 29.97V24.183L223.387 24.1403C222.669 23.8289 221.723 23.5625 220.573 23.3463C219.428 23.1315 218.39 23.0231 217.487 23.0231ZM191.068 45.7345C188.795 45.7345 187.001 44.9719 185.738 43.4697C184.466 41.9599 183.823 39.8079 183.823 37.0725C183.823 34.2509 184.467 32.0425 185.739 30.506C187.002 28.9797 188.778 28.205 191.018 28.205C193.189 28.205 194.919 28.9449 196.158 30.4052C197.403 31.8732 198.035 34.0639 198.035 36.9184C198.035 39.8079 197.44 42.0276 196.269 43.5124C195.105 44.9859 193.356 45.7345 191.068 45.7345ZM191.347 23.0231C187.008 23.0231 183.561 24.3088 181.106 26.8446C178.65 29.3807 177.405 32.8902 177.405 37.2767C177.405 41.4447 178.621 44.7942 181.018 47.2356C183.415 49.6779 186.677 50.915 190.713 50.915C194.918 50.915 198.296 49.6113 200.752 47.0405C203.207 44.4724 204.452 40.996 204.452 36.712C204.452 32.4805 203.284 29.1044 200.98 26.6792C198.675 24.2529 195.434 23.0231 191.347 23.0231ZM167.894 28.2724V23.6641H161.705V50.2734H167.894V36.6617C167.894 34.3472 168.413 32.4457 169.437 31.0095C170.448 29.5904 171.795 28.8713 173.44 28.8713C173.997 28.8713 174.623 28.9642 175.301 29.1482C175.971 29.331 176.457 29.5295 176.744 29.7384L177.004 29.929V23.6186L176.904 23.5751C176.327 23.3275 175.512 23.2025 174.48 23.2025C172.925 23.2025 171.533 23.7079 170.341 24.703C169.295 25.5777 168.538 26.7769 167.96 28.2724H167.894ZM150.622 23.0231C147.783 23.0231 145.25 23.6388 143.096 24.8527C140.937 26.0693 139.268 27.8063 138.132 30.015C137.001 32.2183 136.427 34.792 136.427 37.6622C136.427 40.1763 136.984 42.4836 138.084 44.517C139.185 46.5538 140.743 48.1473 142.715 49.2525C144.685 50.3563 146.961 50.9159 149.481 50.9159C152.423 50.9159 154.934 50.3212 156.947 49.1483L157.029 49.1011V43.3666L156.768 43.5587C155.856 44.2306 154.837 44.7669 153.741 45.1533C152.647 45.5394 151.649 45.7345 150.775 45.7345C148.346 45.7345 146.397 44.966 144.982 43.4509C143.564 41.9338 142.845 39.8035 142.845 37.1228C142.845 34.4253 143.595 32.2402 145.072 30.6279C146.546 29.0204 148.499 28.205 150.877 28.205C152.911 28.205 154.894 28.9016 156.769 30.2775L157.029 30.4681V24.4259L156.945 24.3782C156.239 23.9786 155.276 23.6487 154.081 23.3985C152.892 23.1489 151.728 23.0231 150.622 23.0231ZM132.165 23.6644H125.976V50.2734H132.165V23.6644ZM129.134 12.3288C128.115 12.3288 127.227 12.6795 126.497 13.3744C125.764 14.0713 125.392 14.9488 125.392 15.9843C125.392 17.0036 125.759 17.865 126.485 18.5434C127.207 19.2198 128.098 19.5627 129.134 19.5627C130.17 19.5627 131.064 19.2198 131.794 18.5445C132.529 17.865 132.901 17.0039 132.901 15.9843C132.901 14.985 132.539 14.1165 131.824 13.4025C131.111 12.6899 130.205 12.3288 129.134 12.3288ZM113.692 21.7011V50.2734H120.008V13.1433H111.266L100.155 40.7225L89.3718 13.1433H80.2741V50.2731H86.2096V21.6983H86.4134L97.7999 50.2734H102.279L113.488 21.7011H113.692Z" fill="#706D6E"/>
<path d="M29.7617 30.1819H0.647125V0.736328H29.7617V30.1819Z" fill="#F1511B"/>
<path d="M61.9075 30.1811H32.7935V0.735596H61.9075V30.1811Z" fill="#80CC28"/>
<path d="M29.7609 62.7038H0.647125V33.2585H29.7609V62.7038Z" fill="#00ADEF"/>
<path d="M61.9075 62.7038H32.7935V33.2585H61.9075V62.7038Z" fill="#FBBC09"/>
</g>
<defs>
<clipPath id="clip0_9_2498">
<rect width="287" height="62" fill="white" transform="translate(0.647156 0.719727)"/>
</clipPath>
</defs>
</svg>
