<svg width="281" height="72" viewBox="0 0 281 72" fill="none" xmlns="http://www.w3.org/2000/svg">
<g clip-path="url(#clip0_9_2505)">
<path d="M90.5051 55.8458L93.991 47.7954C97.7581 50.5907 102.762 52.0442 107.71 52.0442C111.365 52.0442 113.67 50.6466 113.67 48.5222C113.614 42.5962 91.7983 47.2363 91.6296 32.3655C91.5734 24.8182 98.3204 19.004 107.879 19.004C113.557 19.004 119.236 20.4017 123.284 23.5883L120.023 31.8064C116.312 29.4584 111.702 27.7812 107.316 27.7812C104.336 27.7812 102.369 29.1788 102.369 30.9678C102.425 36.782 124.409 33.5954 124.634 47.7954C124.634 55.5103 118.055 60.9332 108.61 60.9332C101.694 60.9332 95.3404 59.3119 90.5051 55.8458ZM224.264 44.8883C222.521 47.9072 219.26 49.9757 215.493 49.9757C209.927 49.9757 205.429 45.5033 205.429 39.9686C205.429 34.434 209.927 29.9615 215.493 29.9615C219.26 29.9615 222.521 32.03 224.264 35.0489L233.879 29.7379C230.28 23.3647 223.365 19.004 215.493 19.004C203.854 19.004 194.409 28.3962 194.409 39.9686C194.409 51.541 203.854 60.9332 215.493 60.9332C223.421 60.9332 230.28 56.6285 233.879 50.1993L224.264 44.8883ZM129.469 1.61743H141.501V60.1505H129.469V1.61743ZM238.601 1.61743V60.1505H250.634V42.5962L264.915 60.1505H280.32L262.16 39.2977L278.971 19.8426H264.24L250.634 35.9993V1.61743H238.601ZM177.26 45.0001C175.517 47.8513 171.919 49.9757 167.871 49.9757C162.304 49.9757 157.806 45.5033 157.806 39.9686C157.806 34.434 162.304 29.9615 167.871 29.9615C171.919 29.9615 175.517 32.1977 177.26 35.1048V45.0001ZM177.26 19.8426V24.5946C175.292 21.2962 170.401 19.004 165.284 19.004C154.714 19.004 146.393 28.2844 146.393 39.9127C146.393 51.541 154.714 60.9332 165.284 60.9332C170.401 60.9332 175.292 58.641 177.26 55.3426V60.0946H189.292V19.8426H177.26Z" fill="black"/>
<path d="M16.1199 44.944C16.1199 49.0251 12.8026 52.3235 8.69821 52.3235C4.59379 52.3235 1.27652 49.0251 1.27652 44.944C1.27652 40.8629 4.59379 37.5645 8.69821 37.5645H16.1199V44.944ZM19.8307 44.944C19.8307 40.8629 23.148 37.5645 27.2524 37.5645C31.3568 37.5645 34.6741 40.8629 34.6741 44.944V63.3928C34.6741 67.4739 31.3568 70.7723 27.2524 70.7723C23.148 70.7723 19.8307 67.4739 19.8307 63.3928V44.944Z" fill="#E01E5A"/>
<path d="M27.2521 15.3142C23.1477 15.3142 19.8304 12.0158 19.8304 7.9347C19.8304 3.8536 23.1477 0.555176 27.2521 0.555176C31.3565 0.555176 34.6738 3.8536 34.6738 7.9347V15.3142H27.2521ZM27.2521 19.0599C31.3565 19.0599 34.6738 22.3583 34.6738 26.4394C34.6738 30.5205 31.3565 33.819 27.2521 33.819H8.64166C4.53724 33.819 1.21997 30.5205 1.21997 26.4394C1.21997 22.3583 4.53724 19.0599 8.64166 19.0599H27.2521Z" fill="#36C5F0"/>
<path d="M56.9951 26.4394C56.9951 22.3583 60.3124 19.0599 64.4168 19.0599C68.5212 19.0599 71.8385 22.3583 71.8385 26.4394C71.8385 30.5205 68.5212 33.819 64.4168 33.819H56.9951V26.4394ZM53.2843 26.4394C53.2843 30.5205 49.967 33.819 45.8626 33.819C41.7582 33.819 38.4409 30.5205 38.4409 26.4394V7.9347C38.4409 3.8536 41.7582 0.555176 45.8626 0.555176C49.967 0.555176 53.2843 3.8536 53.2843 7.9347V26.4394Z" fill="#2EB67D"/>
<path d="M45.8626 56.0133C49.967 56.0133 53.2843 59.3117 53.2843 63.3928C53.2843 67.4739 49.967 70.7723 45.8626 70.7723C41.7582 70.7723 38.4409 67.4739 38.4409 63.3928V56.0133H45.8626ZM45.8626 52.3235C41.7582 52.3235 38.4409 49.0251 38.4409 44.944C38.4409 40.8629 41.7582 37.5645 45.8626 37.5645H64.473C68.5774 37.5645 71.8947 40.8629 71.8947 44.944C71.8947 49.0251 68.5774 52.3235 64.473 52.3235H45.8626Z" fill="#ECB22E"/>
</g>
<defs>
<clipPath id="clip0_9_2505">
<rect width="280" height="71" fill="white" transform="translate(0.825439 0.219727)"/>
</clipPath>
</defs>
</svg>
