<svg width="60" height="61" viewBox="0 0 60 61" fill="none" xmlns="http://www.w3.org/2000/svg">
<g clip-path="url(#clip0_9_19160)">
<path d="M8.32884 20.2285C7.29504 20.2285 6.4179 20.589 5.69688 21.31C4.97585 22.0311 4.61523 22.8963 4.61523 23.9061V39.4108C4.61523 40.4459 4.97575 41.3223 5.69688 42.0434C6.4179 42.7644 7.29504 43.1251 8.32884 43.1251C9.36188 43.1251 10.2337 42.7645 10.9435 42.0434C11.652 41.3224 12.0072 40.4459 12.0072 39.4108V23.9061C12.0072 22.8962 11.6467 22.0311 10.9255 21.31C10.2044 20.589 9.33866 20.2285 8.32884 20.2285Z" fill="white"/>
<path d="M38.1837 6.30932L40.7438 1.58655C40.9118 1.27388 40.8521 1.03412 40.5639 0.865524C40.2511 0.720148 40.0108 0.793813 39.8429 1.08131L37.247 5.84184C34.9627 4.83191 32.5467 4.32602 29.9991 4.32602C27.4509 4.32602 25.0347 4.83202 22.7513 5.84184L20.1553 1.08131C19.9866 0.793813 19.7463 0.720799 19.4342 0.865524C19.1454 1.03488 19.0857 1.27388 19.2544 1.58655L21.8146 6.30932C19.2186 7.63322 17.151 9.477 15.6126 11.8447C14.0742 14.2137 13.3047 16.8024 13.3047 19.6156H46.6572C46.6572 16.8031 45.8876 14.2142 44.3493 11.8447C42.8108 9.477 40.7552 7.63322 38.1837 6.30932ZM23.3821 13.1787C23.1052 13.4562 22.7745 13.5943 22.3902 13.5943C22.005 13.5943 21.6811 13.4562 21.4168 13.1787C21.1525 12.9025 21.0204 12.5731 21.0204 12.1874C21.0204 11.803 21.1525 11.473 21.4168 11.1961C21.6811 10.9199 22.0058 10.7818 22.3902 10.7818C22.7745 10.7818 23.1052 10.9199 23.3821 11.1961C23.6583 11.4736 23.7971 11.803 23.7971 12.1874C23.7963 12.5724 23.6576 12.9025 23.3821 13.1787ZM38.58 13.1787C38.3151 13.4562 37.9904 13.5943 37.6067 13.5943C37.2215 13.5943 36.8909 13.4562 36.6146 13.1787C36.3378 12.9025 36.1997 12.5731 36.1997 12.1874C36.1997 11.803 36.3378 11.473 36.6146 11.1961C36.8909 10.9199 37.2215 10.7818 37.6067 10.7818C37.9911 10.7818 38.315 10.9199 38.58 11.1961C38.8445 11.4736 38.9764 11.803 38.9764 12.1874C38.9764 12.5724 38.8444 12.9025 38.58 13.1787Z" fill="white"/>
<path d="M13.4492 44.9267C13.4492 46.0335 13.8336 46.9704 14.6025 47.7393C15.372 48.5082 16.3089 48.8925 17.4149 48.8925H20.0834L20.1199 57.0785C20.1199 58.1122 20.4804 58.99 21.2015 59.7111C21.9225 60.4323 22.7883 60.7928 23.7975 60.7928C24.8307 60.7928 25.7083 60.4323 26.4295 59.7111C27.1506 58.99 27.5111 58.1123 27.5111 57.0785V48.8933H32.4869V57.0785C32.4869 58.1122 32.8473 58.99 33.5684 59.7111C34.2895 60.4323 35.1665 60.7928 36.2004 60.7928C37.2335 60.7928 38.1112 60.4323 38.8323 59.7111C39.5535 58.99 39.9139 58.1123 39.9139 57.0785V48.8933H42.6183C43.6998 48.8933 44.6247 48.5088 45.395 47.74C46.1637 46.9711 46.5483 46.0342 46.5483 44.9275V20.9121H13.4492V44.9267Z" fill="white"/>
<path d="M51.6699 20.2285C50.6599 20.2285 49.7949 20.5837 49.0737 21.2921C48.3527 22.0019 47.9922 22.8737 47.9922 23.9061V39.4108C47.9922 40.4459 48.3526 41.3223 49.0737 42.0434C49.7949 42.7645 50.6606 43.1251 51.6699 43.1251C52.703 43.1251 53.5807 42.7645 54.3018 42.0434C55.023 41.3223 55.3834 40.4459 55.3834 39.4108V23.9061C55.3834 22.8736 55.023 22.0019 54.3018 21.2921C53.5807 20.5837 52.703 20.2285 51.6699 20.2285Z" fill="white"/>
</g>
<defs>
<clipPath id="clip0_9_19160">
<rect width="60" height="60" fill="white" transform="translate(0 0.792969)"/>
</clipPath>
</defs>
</svg>
