<svg width="60" height="61" viewBox="0 0 60 61" fill="none" xmlns="http://www.w3.org/2000/svg">
<g clip-path="url(#clip0_9_19148)">
<path d="M46.4416 34.4252C44.7911 26.1189 52.6753 21.2473 52.6753 21.2473C52.6753 21.2473 49.6035 16.8032 44.4411 15.6599C39.2811 14.5141 36.6986 15.9457 34.1212 17.0194C31.5412 18.0957 30.2538 18.0957 30.2538 18.0957C26.5307 18.0957 23.809 14.1537 16.7155 15.9483C11.8286 17.1816 6.68401 22.8231 5.75451 29.5562C4.82501 36.2919 6.83083 44.8866 10.6982 51.5477C14.5655 58.2139 18.505 60.7192 21.3012 60.7913C24.0974 60.8607 26.8886 58.7881 30.2538 58.2834C33.6217 57.7838 35.6944 59.5039 38.9979 60.4334C42.2884 61.3604 43.442 60.5004 47.2321 57.2767C51.0324 54.053 54.4724 44.8069 54.4724 44.8069C54.4724 44.8069 48.0921 42.7366 46.4416 34.4252Z" fill="white"/>
<path d="M39.1342 10.2862C42.7903 6.5606 41.5519 0.792969 41.5519 0.792969C41.5519 0.792969 36.4178 1.69418 32.9778 5.27312C29.5404 8.85469 30.1094 14.5115 30.1094 14.5115C30.1094 14.5115 35.4779 14.0095 39.1342 10.2862Z" fill="white"/>
</g>
<defs>
<clipPath id="clip0_9_19148">
<rect width="60" height="60" fill="white" transform="translate(0 0.792969)"/>
</clipPath>
</defs>
</svg>
